    <svg version="1.1" xmlns="http://www.w3.org/2000/svg" viewBox="0 0 150 150">
    <g cx="0" cy="0" transform="rotate(90 150 150)">
        <rect width="300" height="300" x="0" y="0" className="cls-1" />
        <path d="M 100 0 A 200 200 0 0 0 300 200 L 300 100 A 100 100 0 0 1 200 0 L 100 0 z"
            className="cls-2" />
        <path d="M 0 100 A 200 200 0 0 1 200 300 L 100 300 A 100 100 0 0 0 0 200 L 0 100 z"
            className="cls-2" />
        <circle cx="0" cy="0" r="100" className="cls-1" />
        <circle cx="0" cy="300" r="100" className="cls-1" />
        <circle cx="300" cy="0" r="100" className="cls-1" />
        <circle cx="300" cy="300" r="100" className="cls-1" />
        <circle cx="0" cy="150" r="50" className="cls-2" />
        <circle cx="150" cy="0" r="50" className="cls-2" />
        <circle cx="300" cy="150" r="50" className="cls-2" />
        <circle cx="150" cy="300" r="50" className="cls-2" />
    </g>
</svg>